<svg width="1097" height="467" fill="none" xmlns="http://www.w3.org/2000/svg"><path d="m750.025 127.221-23.191 10.613 13.364 13.364 9.827-23.977Z" fill="#F55F7E" stroke="#000" stroke-linecap="round"/><path d="M747.666 151.198h-7.468l9.974-24.026-2.506 24.026Z" fill="#F5747E" stroke="#000" stroke-linecap="round"/><circle cx="664" cy="361" r="2" fill="#FF6A5B"/><circle cx="387" cy="419" r="2" fill="#FF6A5B"/><circle cx="330" cy="258" r="2" fill="#FF6A5B"/><circle cx="796" cy="365" r="2" fill="#FF6A5B"/><circle cx="1072" cy="53" r="2" fill="#86F3FF"/><circle cx="956" cy="226" r="2" fill="#86F3FF"/><circle cx="103" cy="111" r="2" fill="#86F3FF"/><circle cx="782" cy="190" r="2" fill="#FF6A5B"/><circle cx="242" cy="226" r="2" fill="#FF6A5B"/><circle cx="350" cy="128" r="5" fill="#68E6B8" stroke="#000" stroke-width="2"/><path d="m901.786 91.933-34.244 2.88 13.605 23.565 20.639-26.445Z" fill="#6DDFDF" stroke="#000" stroke-linecap="round"/><path d="M867.285 95.186c.275-.16.739-.17 1.463.17.708.332 1.554.954 2.485 1.84 1.856 1.77 3.964 4.511 5.868 7.809 1.904 3.297 3.224 6.493 3.828 8.985.302 1.25.417 2.294.352 3.073-.067.797-.309 1.193-.585 1.352-.275.159-.739.171-1.463-.17-.707-.333-1.554-.954-2.485-1.841-1.856-1.769-3.964-4.51-5.868-7.808-1.904-3.297-3.224-6.493-3.828-8.986-.302-1.25-.417-2.293-.352-3.072.067-.797.309-1.193.585-1.352Z" fill="#45B5DD" stroke="#000"/><path d="m184.568 34.6 21.907 15.574 5.155-19.24-27.062 3.666Z" fill="#6DDFDF" stroke="#000" stroke-linecap="round"/><path d="m207.695 24.117 3.935 6.817-27.185 3.557 23.25-10.373Z" fill="#45B5DD" stroke="#000" stroke-linecap="round"/><path d="m881.013 14.23 17.176 12.212 4.042-15.085-21.218 2.874Z" fill="#6DDFDF" stroke="#000" stroke-linecap="round"/><path d="m899.146 6.012 3.085 5.345-21.314 2.789 18.229-8.134Z" fill="#45B5DD" stroke="#000" stroke-linecap="round"/><path d="M587.859 98.305c-6.715-6.715-9.495-14.396-8.075-15.816l31.705-31.705 23.892 23.892-31.705 31.705c-1.42 1.42-9.101-1.36-15.817-8.076Z" fill="#F7E96E"/><path d="m611.489 50.784-.354-.353a.5.5 0 0 1 .707 0l-.353.353Zm23.892 23.892.353-.354a.499.499 0 0 1 0 .707l-.353-.353Zm-55.243 8.167c-.07.07-.155.222-.194.522-.039.296-.026.687.052 1.17.156.965.562 2.224 1.229 3.667 1.331 2.882 3.671 6.433 6.988 9.75l-.707.707c-3.398-3.398-5.807-7.046-7.189-10.038-.69-1.494-1.133-2.842-1.308-3.926-.088-.541-.112-1.036-.057-1.459.054-.417.193-.815.478-1.1l.708.707Zm8.075 15.109c3.317 3.317 6.868 5.656 9.75 6.988 1.443.667 2.702 1.073 3.667 1.229.483.078.874.091 1.17.052.3-.039.453-.124.522-.194l.707.707c-.285.286-.683.424-1.1.479-.423.055-.918.031-1.459-.057-1.084-.175-2.432-.618-3.926-1.308-2.992-1.383-6.64-3.791-10.038-7.189l.707-.707Zm-8.783-15.817 31.705-31.705.707.708-31.704 31.705-.708-.708Zm56.304-7.106-31.705 31.705-.707-.707 31.705-31.705.707.707Zm-23.892-24.598 23.892 23.891-.707.707-23.892-23.891.707-.707Z" fill="#000"/><path d="M611.629 50.924c-.056.056-.12.171-.124.42-.004.251.056.592.2 1.025.288.864.876 1.99 1.733 3.308 1.712 2.629 4.439 5.93 7.78 9.27s6.641 6.069 9.27 7.78c1.318.858 2.444 1.445 3.308 1.733.433.145.774.205 1.025.2.249-.004.364-.068.42-.124.056-.056.12-.171.124-.42.005-.251-.055-.592-.2-1.025-.288-.864-.875-1.99-1.733-3.308-1.711-2.629-4.439-5.93-7.78-9.27s-6.641-6.069-9.27-7.78c-1.318-.857-2.444-1.445-3.308-1.733-.433-.145-.774-.205-1.025-.2-.249.004-.364.068-.42.124Z" fill="#BEAC07" stroke="#000"/><path d="m452.979 54.04-3.447 30.996 23.369-7.977-19.922-23.019Z" fill="#65DDEA" stroke="#000" stroke-linecap="round"/><path d="M449.862 85.316c-.086-.252-.026-.65.401-1.23.417-.567 1.114-1.208 2.065-1.88 1.897-1.34 4.703-2.733 7.971-3.848 3.267-1.115 6.34-1.729 8.66-1.828 1.163-.05 2.107.03 2.782.224.693.198.985.477 1.071.728.085.251.025.65-.402 1.23-.416.567-1.114 1.208-2.065 1.88-1.896 1.339-4.703 2.733-7.97 3.848-3.268 1.115-6.341 1.729-8.66 1.828-1.163.05-2.107-.03-2.783-.224-.693-.198-.984-.477-1.07-.728Z" fill="#10575E" stroke="#000"/><path d="M714.852 59.16a.5.5 0 0 1-.724.018L700.44 45.49a.5.5 0 0 1 0-.707l13.918-13.917a.5.5 0 0 1 .713.006l12.822 13.254a.5.5 0 0 1 .01.684l-13.051 14.35Z" fill="#68E6B8" stroke="#000" stroke-linejoin="round"/><path d="m704.926 30.003 9.798.125-14.926 14.927L690 44.93l14.926-14.927Zm9.589 29.935-10.387-.88L690 44.93l9.631.124 14.884 14.884Z" fill="#0D4C35" stroke="#000" stroke-linecap="round" stroke-linejoin="round"/><path d="M375.451 52.45c-5 5-10.718 7.07-11.775 6.012L340.073 34.86l17.786-17.786 23.604 23.603c1.056 1.057-1.013 6.775-6.012 11.774Z" fill="#7C92FF"/><path d="m340.073 34.86-.354.353a.5.5 0 0 1 0-.707l.354.353Zm17.786-17.787-.353-.354a.5.5 0 0 1 .707 0l-.354.354Zm6.17 41.036c.025.024.107.08.316.108.203.026.481.018.834-.039.703-.113 1.628-.411 2.696-.904 2.132-.985 4.763-2.718 7.222-5.177l.707.707c-2.54 2.54-5.268 4.342-7.509 5.377-1.119.517-2.134.851-2.957.985-.41.066-.791.085-1.122.042-.326-.042-.654-.152-.894-.392l.707-.707Zm11.068-6.012c2.459-2.46 4.192-5.09 5.177-7.222.493-1.068.791-1.993.905-2.697.057-.352.064-.63.038-.833-.027-.21-.084-.291-.108-.316l.707-.707c.24.24.35.568.393.893.043.332.023.713-.043 1.123-.133.822-.468 1.838-.984 2.956-1.036 2.242-2.838 4.97-5.378 7.51l-.707-.707Zm-11.775 6.719-23.603-23.603.707-.707 23.603 23.603-.707.707Zm-5.109-42.097 23.603 23.603-.707.707-23.603-23.603.707-.707Zm-18.494 17.787 17.787-17.787.707.707-17.787 17.787-.707-.707Z" fill="#000"/><path d="M340.268 34.664c.01.011.059.053.224.056.167.003.405-.038.72-.143.629-.21 1.457-.64 2.434-1.276 1.947-1.268 4.398-3.292 6.88-5.775 2.483-2.483 4.507-4.933 5.775-6.88.636-.978 1.067-1.806 1.277-2.434.105-.315.145-.553.142-.72-.003-.165-.045-.214-.055-.225-.011-.01-.06-.052-.224-.055-.168-.003-.406.037-.721.143-.628.21-1.456.64-2.434 1.276-1.947 1.268-4.397 3.292-6.88 5.775-2.483 2.482-4.507 4.933-5.775 6.88-.636.977-1.067 1.805-1.276 2.434-.105.315-.146.553-.143.72.003.165.045.214.056.224Z" fill="#3E4A88" stroke="#000"/><path d="M541.147 44.656a.5.5 0 0 1-.724.017l-18.192-18.191a.5.5 0 0 1 0-.707l18.483-18.483a.5.5 0 0 1 .713.006l17.041 17.615a.5.5 0 0 1 .011.684l-17.332 19.06Z" fill="#68E6B8" stroke="#000" stroke-linejoin="round"/><path d="m528.368 6.492 12.713.162-19.367 19.368L509 25.86l19.368-19.368Zm12.441 38.842-13.478-1.143L509 25.86l12.496.16 19.313 19.314Z" fill="#0D4C35" stroke="#000" stroke-linecap="round" stroke-linejoin="round"/><circle cx="802" cy="30" r="9.5" fill="#F55F7E" stroke="#000"/><circle cx="798.522" cy="28.261" r="3.043" fill="#F5747E"/><circle cx="414" cy="128" r="9.5" fill="#F55F7E" stroke="#000"/><circle cx="410.522" cy="126.261" r="3.043" fill="#F5747E"/><path d="M247.787 125.436a.5.5 0 0 1-.723.017l-9.944-9.944a.5.5 0 0 1 0-.707l10.122-10.122a.5.5 0 0 1 .713.006l9.314 9.628a.5.5 0 0 1 .011.684l-9.493 10.438Z" fill="#F7E96E" stroke="#000" stroke-linejoin="round"/><path d="m240.235 103.766 7.374.094-11.234 11.234L229 115l11.235-11.234Zm7.216 22.53-7.818-.663L229 115l7.248.094 11.203 11.202Z" fill="#BEAC07" stroke="#000" stroke-linecap="round" stroke-linejoin="round"/><path fill-rule="evenodd" clip-rule="evenodd" d="M527.021 451.995c-1.131-2.66 44.089-2.66 42.958 0C566.5 460.21 558.182 466 548.494 466c-9.676 0-17.994-5.79-21.473-14.005Z" fill="#F55F7E"/><path fill-rule="evenodd" clip-rule="evenodd" d="M527.081 451.983c1.75 4.454 4.746 8.251 8.531 10.911 3.686 2.595 8.123 4.106 12.882 4.106 4.77 0 9.208-1.511 12.894-4.106 3.785-2.66 6.781-6.457 8.531-10.911.16-.388.099-.788-.333-1.136-.295-.246-.937-.504-1.849-.71-3.439-.75-11.341-1.137-19.243-1.137-7.902 0-15.804.387-19.231 1.137-.925.206-1.553.464-1.849.71-.431.348-.494.748-.333 1.136Zm41.58-.194c-1.676 4.093-4.462 7.58-7.963 10.033-3.489 2.454-7.68 3.886-12.204 3.886-4.512 0-8.704-1.432-12.192-3.886-3.501-2.453-6.287-5.94-7.964-10.033a7.032 7.032 0 0 1 1.184-.387c3.377-.736 11.181-1.11 18.972-1.11 7.803 0 15.606.374 18.984 1.11a7.34 7.34 0 0 1 1.183.387Z" fill="#12151E"/><path d="M547.5 458c19.054 0 34.5-4.924 34.5-11 0-6.075-15.446-11-34.5-11-19.054 0-34.5 4.925-34.5 11 0 6.076 15.446 11 34.5 11Z" fill="#45B5DD"/><path fill-rule="evenodd" clip-rule="evenodd" d="M548 435c-13.427 0-25.079 2.44-30.862 5.972-2.689 1.638-4.138 3.558-4.138 5.528 0 1.971 1.449 3.89 4.138 5.528C522.921 455.56 534.573 458 548 458s25.078-2.44 30.862-5.972c2.689-1.638 4.138-3.557 4.138-5.528 0-1.97-1.449-3.89-4.138-5.528C573.078 437.44 561.427 435 548 435Zm0 1.246c11.273 0 21.279 1.731 27.48 4.402 2.005.87 3.597 1.826 4.693 2.866.993.947 1.56 1.937 1.56 2.986 0 1.05-.567 2.048-1.56 2.986-1.096 1.041-2.688 1.996-4.693 2.867-6.201 2.67-16.207 4.401-27.48 4.401s-21.28-1.731-27.48-4.401c-2.005-.871-3.597-1.826-4.694-2.867-.992-.938-1.56-1.936-1.56-2.986 0-1.049.568-2.039 1.56-2.986 1.097-1.04 2.689-1.996 4.694-2.866 6.2-2.671 16.207-4.402 27.48-4.402Z" fill="#12151E"/><path d="M547.5 453c19.054 0 34.5-5.149 34.5-11.5S566.554 430 547.5 430c-19.054 0-34.5 5.149-34.5 11.5s15.446 11.5 34.5 11.5Z" fill="#6DDFDF"/><path fill-rule="evenodd" clip-rule="evenodd" d="M548 429c-13.427 0-25.079 2.546-30.862 6.231-2.689 1.71-4.138 3.712-4.138 5.769s1.449 4.059 4.138 5.769C522.921 450.454 534.573 453 548 453s25.078-2.546 30.862-6.231c2.689-1.71 4.138-3.712 4.138-5.769s-1.449-4.059-4.138-5.769C573.078 431.546 561.427 429 548 429Zm0 1.3c11.273 0 21.279 1.807 27.48 4.594 2.005.907 3.597 1.904 4.693 2.99.993.988 1.56 2.021 1.56 3.116 0 1.095-.567 2.137-1.56 3.116-1.096 1.086-2.688 2.083-4.693 2.991-6.201 2.786-16.207 4.593-27.48 4.593s-21.28-1.807-27.48-4.593c-2.005-.908-3.597-1.905-4.694-2.991-.992-.979-1.56-2.021-1.56-3.116 0-1.095.568-2.128 1.56-3.116 1.097-1.086 2.689-2.083 4.694-2.99 6.2-2.787 16.207-4.594 27.48-4.594Z" fill="#12151E"/><path d="M547.5 446c19.054 0 34.5-4.925 34.5-11s-15.446-11-34.5-11c-19.054 0-34.5 4.925-34.5 11s15.446 11 34.5 11Z" fill="#12151E"/><path fill-rule="evenodd" clip-rule="evenodd" d="M548 423c-13.427 0-25.079 2.44-30.862 5.972-2.689 1.638-4.138 3.557-4.138 5.528 0 1.971 1.449 3.89 4.138 5.528C522.921 443.56 534.573 446 548 446s25.078-2.44 30.862-5.972c2.689-1.638 4.138-3.557 4.138-5.528 0-1.971-1.449-3.89-4.138-5.528C573.078 425.44 561.427 423 548 423Zm0 1.246c11.273 0 21.279 1.731 27.48 4.402 2.005.87 3.597 1.826 4.693 2.866.993.947 1.56 1.937 1.56 2.986 0 1.05-.567 2.048-1.56 2.986-1.096 1.041-2.688 1.996-4.693 2.867-6.201 2.67-16.207 4.401-27.48 4.401s-21.28-1.731-27.48-4.401c-2.005-.871-3.597-1.826-4.694-2.867-.992-.938-1.56-1.936-1.56-2.986 0-1.049.568-2.039 1.56-2.986 1.097-1.04 2.689-1.996 4.694-2.866 6.2-2.671 16.207-4.402 27.48-4.402Z" fill="#6DDFDF"/><path fill-rule="evenodd" clip-rule="evenodd" d="M577 443.371v-63.704c0-.37-.276-.667-.623-.667h-56.754c-.346 0-.623.297-.623.667v63.704c0 .37.277.629.623.629a.61.61 0 0 0 .623-.629v-63.075h55.509v63.075c0 .37.276.629.622.629a.61.61 0 0 0 .623-.629Z" fill="#6DDFDF"/><path d="M526 391.5c0 12.978 10.297 23.5 23 23.5s23-10.522 23-23.5c0-12.979-10.297-23.5-23-23.5s-23 10.521-23 23.5Z" fill="#F55F7E"/><path fill-rule="evenodd" clip-rule="evenodd" d="M573 391.994c0-6.615-2.694-12.616-7.036-16.958-4.342-4.342-10.343-7.036-16.971-7.036-6.614 0-12.615 2.694-16.957 7.036-4.342 4.342-7.036 10.343-7.036 16.958 0 6.627 2.694 12.628 7.036 16.97 4.342 4.342 10.343 7.036 16.957 7.036 6.628 0 12.629-2.694 16.971-7.036 4.342-4.342 7.036-10.343 7.036-16.97Zm-1.277 0a22.605 22.605 0 0 1-6.666 16.063 22.607 22.607 0 0 1-16.064 6.666c-6.269 0-11.939-2.541-16.064-6.666a22.65 22.65 0 0 1-6.652-16.063c0-6.27 2.541-11.94 6.652-16.064 4.125-4.112 9.795-6.653 16.064-6.653a22.65 22.65 0 0 1 16.064 6.653c4.125 4.124 6.666 9.794 6.666 16.064Z" fill="#12151E"/><path fill-rule="evenodd" clip-rule="evenodd" d="M549.22 449c-10.485 0-23.006-2.479-23.132-3.769a23.2 23.2 0 0 1-.088-2.099C526 430.371 536.309 420 548.994 420 561.691 420 572 430.371 572 443.132c0 .708-.038 1.403-.101 2.099-.113 1.29-12.207 3.769-22.679 3.769Z" fill="#F55F7E"/><path d="M534 434a7 7 0 1 0 14 0 7 7 0 0 0-14 0Z" fill="#F5747E"/><path fill-rule="evenodd" clip-rule="evenodd" d="M526.337 445.26c-.025-.334-.05-.656-.062-.991a25.77 25.77 0 0 1-.025-1.002c0-6.08 2.488-11.578 6.514-15.578a22.316 22.316 0 0 1 15.729-6.45c6.14 0 11.703 2.464 15.73 6.45 4.038 4 6.526 9.498 6.526 15.578 0 .52-.025 1.015-.05 1.522a20.323 20.323 0 0 1-.162 1.511c-.05.334.2.644.537.693.338.05.65-.185.7-.532.075-.52.126-1.053.163-1.585a22.49 22.49 0 0 0 .063-1.609c0-6.414-2.638-12.234-6.889-16.444A23.552 23.552 0 0 0 548.493 420a23.544 23.544 0 0 0-16.604 6.823c-4.251 4.21-6.889 10.03-6.889 16.444 0 .359.012.705.025 1.052.012.359.038.706.075 1.052a.61.61 0 0 0 .675.558.608.608 0 0 0 .562-.669Z" fill="#12151E"/><path fill-rule="evenodd" clip-rule="evenodd" d="M573.138 441.035c-5.699 1.802-14.401 2.953-24.138 2.953-9.738 0-18.439-1.151-24.138-2.953-.322-.102-.691.025-.816.285-.131.259.03.549.351.651C530.204 443.817 539.072 445 549 445s18.796-1.183 24.603-3.029c.322-.102.482-.392.351-.651-.125-.26-.494-.387-.816-.285Z" fill="#12151E"/><path fill-rule="evenodd" clip-rule="evenodd" d="M574.037 441.042c-6.126 2.53-15.428 4.13-25.825 4.13-9.852 0-18.718-1.439-24.838-3.736-.32-.125-2.189 3.432-2.349 3.736-.762 1.394 16.369 5.828 26.874 5.828 11.197 0 21.772-1.627 26.945-5.828.275-.224.128-3.415 0-3.754a.618.618 0 0 0-.807-.376Z" fill="#6DDFDF"/><path d="M548.5 400c21.263 0 38.5-5.596 38.5-12.5S569.763 375 548.5 375s-38.5 5.596-38.5 12.5 17.237 12.5 38.5 12.5Z" fill="#45B5DD"/><path fill-rule="evenodd" clip-rule="evenodd" d="M548.5 374c-14.78 0-27.604 2.773-33.969 6.776C511.589 382.628 510 384.78 510 387c0 2.22 1.589 4.372 4.531 6.224C520.896 397.228 533.72 400 548.5 400c14.78 0 27.604-2.772 33.969-6.776C585.41 391.372 587 389.22 587 387c0-2.22-1.59-4.372-4.531-6.224C576.104 376.773 563.28 374 548.5 374Zm0 1.28c12.435 0 23.468 1.968 30.301 5.011 2.222.99 3.984 2.085 5.192 3.268 1.116 1.085 1.741 2.229 1.741 3.441 0 1.212-.625 2.356-1.741 3.442-1.208 1.192-2.97 2.287-5.192 3.267-6.833 3.043-17.866 5.011-30.301 5.011-12.436 0-23.469-1.968-30.301-5.011-2.222-.98-3.984-2.075-5.193-3.267-1.115-1.086-1.74-2.23-1.74-3.442 0-1.212.625-2.356 1.74-3.441 1.209-1.183 2.971-2.278 5.193-3.268 6.832-3.043 17.865-5.011 30.301-5.011Z" fill="#12151E"/><path d="M548.5 393c21.263 0 38.5-5.82 38.5-13s-17.237-13-38.5-13-38.5 5.82-38.5 13 17.237 13 38.5 13Z" fill="#6DDFDF"/><path fill-rule="evenodd" clip-rule="evenodd" d="M548.5 366c-14.78 0-27.604 2.879-33.969 7.037-2.942 1.923-4.531 4.158-4.531 6.463 0 2.305 1.589 4.541 4.531 6.463C520.896 390.121 533.72 393 548.5 393c14.78 0 27.604-2.879 33.969-7.037 2.941-1.922 4.531-4.158 4.531-6.463 0-2.305-1.59-4.54-4.531-6.463C576.104 368.879 563.28 366 548.5 366Zm0 1.329c12.435 0 23.468 2.043 30.301 5.204 2.222 1.027 3.984 2.165 5.192 3.393 1.116 1.128 1.741 2.315 1.741 3.574s-.625 2.446-1.741 3.574c-1.208 1.238-2.97 2.376-5.192 3.393-6.833 3.161-17.866 5.204-30.301 5.204-12.436 0-23.469-2.043-30.301-5.204-2.222-1.017-3.984-2.155-5.193-3.393-1.115-1.128-1.74-2.315-1.74-3.574s.625-2.446 1.74-3.574c1.209-1.228 2.971-2.366 5.193-3.393 6.832-3.161 17.865-5.204 30.301-5.204Z" fill="#12151E"/><path fill-rule="evenodd" clip-rule="evenodd" d="M513.19 375.234 464 290h169l-49.19 85.234c-2.763 4.643-15.84 9.766-35.31 9.766-19.471 0-32.547-5.123-35.31-9.766Z" fill="#696FED"/><path fill-rule="evenodd" clip-rule="evenodd" d="M512.883 375.839c1.148 1.935 3.986 4.032 8.29 5.742 6.25 2.516 15.625 4.419 27.327 4.419 11.702 0 21.077-1.903 27.327-4.419 4.304-1.71 7.142-3.807 8.29-5.742l48.787-85.871a.59.59 0 0 0 0-.645.615.615 0 0 0-.542-.323H464.638a.646.646 0 0 0-.552.968l48.797 85.871Zm1.116-.678c-.383-.645-42.913-75.484-48.257-84.871h165.504l-48.245 84.871c-1.052 1.807-3.699 3.645-7.653 5.226-6.122 2.484-15.369 4.323-26.848 4.323s-20.726-1.839-26.848-4.323c-3.954-1.581-6.601-3.419-7.653-5.226Z" fill="#12151E"/><path fill-rule="evenodd" clip-rule="evenodd" d="M529.487 378.131 503 292h91l-26.487 86.131c-1.488 4.692-8.529 9.869-19.013 9.869-10.484 0-17.526-5.177-19.013-9.869Z" fill="#7C92FF"/><path fill-rule="evenodd" clip-rule="evenodd" d="M528.725 377.816c.628 1.947 2.198 4.022 4.587 5.746 3.47 2.522 8.684 4.438 15.189 4.438 6.505 0 11.719-1.916 15.189-4.438 2.39-1.724 3.959-3.799 4.587-5.746l26.7-84.986a.675.675 0 0 0-.106-.575.599.599 0 0 0-.505-.255h-91.73a.64.64 0 0 0-.512.255.651.651 0 0 0-.095.575l26.696 84.986Zm1.203-.415-26.423-84.124h89.989s-26.246 83.549-26.42 84.124c-.576 1.756-2.006 3.575-4.133 5.14-3.296 2.394-8.266 4.182-14.44 4.182-6.173 0-11.143-1.788-14.439-4.182-2.128-1.565-3.558-3.384-4.134-5.14Z" fill="#12151E"/><path d="M548.5 320c53.848 0 97.5-14.103 97.5-31.5S602.348 257 548.5 257 451 271.103 451 288.5s43.652 31.5 97.5 31.5Z" fill="#FFE57C"/><path fill-rule="evenodd" clip-rule="evenodd" d="M548.5 256c-37.95 0-70.901 6.961-87.256 17.07C454.014 277.522 450 282.638 450 288s4.014 10.478 11.244 14.93C477.599 313.039 510.55 320 548.5 320s70.901-6.961 87.256-17.07C642.985 298.478 647 293.362 647 288s-4.015-10.478-11.244-14.93C619.401 262.961 586.45 256 548.5 256Zm0 1.279c32.301 0 60.94 5.017 78.707 12.79 5.854 2.558 10.5 5.411 13.697 8.486 3.103 2.976 4.795 6.149 4.795 9.445 0 3.32-1.692 6.469-4.795 9.445-3.197 3.075-7.843 5.928-13.697 8.486-17.767 7.773-46.406 12.79-78.707 12.79-32.301 0-60.94-5.017-78.707-12.79-5.854-2.558-10.5-5.411-13.697-8.486-3.104-2.976-4.795-6.125-4.795-9.445 0-3.296 1.691-6.469 4.795-9.445 3.197-3.075 7.843-5.928 13.697-8.486 17.767-7.773 46.406-12.79 78.707-12.79Z" fill="#12151E"/><path fill-rule="evenodd" clip-rule="evenodd" d="M479.055 292.463C461.704 286.665 451 278.734 451 270c0-17.669 43.685-32 97.5-32s97.5 14.331 97.5 32-43.685 32-97.5 32c-6.296 0-12.463-.201-18.426-.578" fill="#FFE57C"/><path fill-rule="evenodd" clip-rule="evenodd" d="M479.011 292.233c-10.333-3.397-18.306-7.569-23.008-12.216-3.048-2.998-4.702-6.195-4.702-9.517 0-3.348 1.691-6.57 4.795-9.593 3.197-3.122 7.843-6.02 13.697-8.618 17.767-7.894 46.406-12.991 78.707-12.991 32.301 0 60.94 5.097 78.707 12.991 5.854 2.598 10.5 5.496 13.697 8.618 3.103 3.023 4.795 6.245 4.795 9.593 0 3.372-1.692 6.57-4.795 9.592-3.197 3.123-7.843 6.021-13.697 8.619-17.767 7.894-46.406 12.99-78.707 12.99-6.3 0-12.471-.175-18.455-.55a.614.614 0 0 0-.669.6c-.019.35.242.65.595.674A297.42 297.42 0 0 0 548.5 303c37.95 0 70.901-7.07 87.256-17.337C642.985 281.141 647 275.946 647 270.5s-4.015-10.642-11.244-15.163C619.401 245.07 586.45 238 548.5 238s-70.901 7.07-87.256 17.337C454.014 259.858 450 265.054 450 270.5c0 3.647 1.784 7.144 5.092 10.417 4.832 4.771 12.954 9.043 23.51 12.54.335.1.707-.075.818-.399a.659.659 0 0 0-.409-.825Z" fill="#12151E"/><path d="M548 286c41.421 0 75-6.94 75-15.5 0-8.561-33.579-15.5-75-15.5s-75 6.939-75 15.5c0 8.56 33.579 15.5 75 15.5Z" fill="#12151E"/><path fill-rule="evenodd" clip-rule="evenodd" d="M548.5 254c-29.034 0-54.229 3.521-66.742 8.623-3.312 1.357-5.758 2.837-7.18 4.381-1.052 1.132-1.578 2.302-1.578 3.496 0 1.195.526 2.364 1.578 3.496 1.422 1.544 3.868 3.024 7.18 4.381C494.271 283.479 519.466 287 548.5 287c29.034 0 54.229-3.521 66.742-8.623 3.312-1.357 5.758-2.837 7.18-4.381 1.052-1.132 1.578-2.301 1.578-3.496 0-1.194-.526-2.364-1.578-3.496-1.422-1.544-3.868-3.024-7.18-4.381C602.729 257.521 577.534 254 548.5 254Zm0 1.269c28.82 0 53.831 3.447 66.258 8.524 3.1 1.269 5.389 2.626 6.725 4.057.797.87 1.238 1.742 1.238 2.65 0 .909-.441 1.792-1.238 2.65-1.336 1.432-3.625 2.788-6.725 4.057-12.427 5.077-37.438 8.524-66.258 8.524-28.821 0-53.831-3.447-66.258-8.524-3.1-1.269-5.389-2.625-6.725-4.057-.797-.858-1.238-1.741-1.238-2.65 0-.908.441-1.78 1.238-2.65 1.336-1.431 3.625-2.788 6.725-4.057 12.427-5.077 37.437-8.524 66.258-8.524Z" fill="#12151E"/><path fill-rule="evenodd" clip-rule="evenodd" d="M475.534 275c-1.653-1.327-2.534-2.686-2.534-4.107 0-8.784 33.604-15.893 74.997-15.893 41.395 0 75.003 7.109 75.003 15.893 0 1.421-.894 2.78-2.553 4.107-8.522-6.793-37.757-11.785-72.45-11.785-34.69 0-63.913 4.992-72.463 11.785Z" fill="#7C92FF"/><path fill-rule="evenodd" clip-rule="evenodd" d="M475.768 275.853a.614.614 0 0 0 .797 0c3.364-2.748 9.994-5.202 18.911-7.197 13.533-2.977 32.297-4.842 53.02-4.842 20.74 0 39.473 1.865 53.012 4.842 8.921 1.995 15.546 4.449 18.924 7.197a.612.612 0 0 0 .796 0c1.848-1.505 2.772-3.108 2.772-4.744 0-1.243-.542-2.453-1.593-3.631-1.402-1.603-3.855-3.14-7.168-4.547-12.52-5.299-37.72-8.931-66.743-8.931-29.028 0-54.231 3.632-66.741 8.931-3.314 1.407-5.754 2.944-7.184 4.547-1.045 1.178-1.571 2.388-1.571 3.631 0 1.636.93 3.239 2.768 4.744Zm.415-1.341c-1.227-1.113-1.909-2.225-1.909-3.403 0-.948.44-1.865 1.236-2.748 1.335-1.505 3.632-2.912 6.729-4.22 12.421-5.267 37.442-8.832 66.257-8.832 28.8 0 53.841 3.565 66.265 8.832 3.09 1.308 5.384 2.715 6.722 4.22.796.883 1.243 1.8 1.243 2.748 0 1.178-.701 2.29-1.912 3.403-3.568-2.716-10.195-5.17-19.019-7.132-13.604-3.01-32.464-4.875-53.299-4.875-20.828 0-39.688 1.865-53.291 4.875-8.822 1.962-15.448 4.416-19.022 7.132Z" fill="#12151E"/><path fill-rule="evenodd" clip-rule="evenodd" d="M529.797 250.303c13.076 2.078 21.993 14.299 19.898 27.273-.49 3.035-1.247 6.068-3.033 8.369-2.34.136-11.759.043-21.59-.543-8.006-.459-16.307-1.249-21.236-2.48a23.414 23.414 0 0 1-1.53-12.878c2.095-12.973 14.413-21.82 27.491-19.741Z" fill="#F55F7E"/><path fill-rule="evenodd" clip-rule="evenodd" d="M504.022 283.124a22.756 22.756 0 0 1-1.476-12.463c2.029-12.573 13.961-21.142 26.632-19.128 12.671 2.014 21.307 13.853 19.277 26.426-.471 2.921-1.185 5.824-2.909 8.04a.622.622 0 0 0 .125.87.625.625 0 0 0 .873-.104c1.853-2.377 2.638-5.471 3.145-8.61 2.138-13.244-6.966-25.724-20.313-27.846-13.348-2.122-25.926 6.912-28.064 20.156a24.014 24.014 0 0 0 1.551 13.143c.131.324.496.463.823.333a.616.616 0 0 0 .336-.817Z" fill="#12151E"/><path d="M563 244.5c0 14.635 12.089 26.5 27 26.5 14.912 0 27-11.865 27-26.5S604.912 218 590 218c-14.911 0-27 11.865-27 26.5Z" fill="#F55F7E"/><path fill-rule="evenodd" clip-rule="evenodd" d="M617 243.993c0-7.451-3.082-14.195-8.058-19.081-4.977-4.885-11.86-7.912-19.449-7.912-7.589 0-14.458 3.027-19.435 7.912-4.976 4.886-8.058 11.63-8.058 19.081 0 7.451 3.082 14.21 8.058 19.095 4.977 4.886 11.846 7.912 19.435 7.912 7.589 0 14.472-3.026 19.449-7.912 4.976-4.885 8.058-11.644 8.058-19.095Zm-1.292 0c0 7.105-2.935 13.533-7.692 18.187-4.741 4.669-11.287 7.552-18.523 7.552a26.36 26.36 0 0 1-18.524-7.552c-4.742-4.654-7.678-11.082-7.678-18.187 0-7.091 2.936-13.518 7.678-18.188a26.411 26.411 0 0 1 18.524-7.536c7.236 0 13.782 2.882 18.523 7.536 4.757 4.67 7.692 11.097 7.692 18.188Z" fill="#12151E"/><path d="M496 172c0 12.703 10.521 23 23.5 23s23.5-10.297 23.5-23-10.521-23-23.5-23-23.5 10.297-23.5 23Z" fill="#F55F7E"/><path fill-rule="evenodd" clip-rule="evenodd" d="M543 171.994c0-6.615-2.694-12.617-7.036-16.958-4.342-4.342-10.343-7.036-16.97-7.036-6.615 0-12.616 2.694-16.958 7.036-4.342 4.341-7.036 10.343-7.036 16.958 0 6.627 2.694 12.629 7.036 16.97 4.342 4.342 10.343 7.036 16.958 7.036 6.627 0 12.628-2.694 16.97-7.036 4.342-4.341 7.036-10.343 7.036-16.97Zm-1.277 0a22.608 22.608 0 0 1-6.665 16.063 22.607 22.607 0 0 1-16.064 6.666c-6.27 0-11.939-2.541-16.064-6.666a22.648 22.648 0 0 1-6.653-16.063c0-6.27 2.541-11.94 6.653-16.064 4.125-4.112 9.794-6.653 16.064-6.653a22.65 22.65 0 0 1 16.064 6.653c4.124 4.124 6.665 9.794 6.665 16.064Z" fill="#12151E"/><path d="M503 167a9 9 0 0 0 9 9 9 9 0 0 0 9-9 9 9 0 0 0-9-9 9 9 0 0 0-9 9Zm8 101c0 5.523 4.03 10 9 10s9-4.477 9-10-4.03-10-9-10-9 4.477-9 10Zm61-20c0 5.523 4.253 10 9.5 10s9.5-4.477 9.5-10-4.253-10-9.5-10-9.5 4.477-9.5 10Z" fill="#F5747E"/><path fill-rule="evenodd" clip-rule="evenodd" d="M622.721 270.629c0 .901-.441 1.778-1.238 2.63-1.336 1.42-3.625 2.766-6.725 4.025-12.427 5.037-37.438 8.457-66.258 8.457-28.821 0-53.831-3.42-66.258-8.457-3.1-1.259-5.389-2.605-6.725-4.025-.797-.852-1.238-1.729-1.238-2.63a.634.634 0 0 0-.639-.629.634.634 0 0 0-.64.629c0 1.186.526 2.346 1.578 3.47 1.422 1.53 3.868 3 7.18 4.346C494.271 283.506 519.466 287 548.5 287c29.034 0 54.229-3.494 66.742-8.555 3.312-1.346 5.758-2.816 7.18-4.346 1.052-1.124 1.578-2.284 1.578-3.47a.634.634 0 0 0-.64-.629.634.634 0 0 0-.639.629Z" fill="#12151E"/><path fill-rule="evenodd" clip-rule="evenodd" d="M435.391 231 410 192l46 2.8" fill="#6DDFDF"/><path d="M451.795 216.653c5.637-10.067 7.835-19.638 4.911-21.379-2.925-1.741-9.865 5.007-15.501 15.074-5.637 10.065-7.835 19.637-4.911 21.378 2.925 1.741 9.865-5.007 15.501-15.073Z" fill="#45B5DD"/><path fill-rule="evenodd" clip-rule="evenodd" d="M440.487 209.965c-3.226 5.689-5.376 11.238-6.155 15.377-.404 2.144-.44 3.921-.105 5.183.254 1.006.745 1.713 1.423 2.111.678.398 1.524.478 2.506.199 1.242-.336 2.734-1.255 4.356-2.685 3.131-2.756 6.775-7.426 10.001-13.115 3.226-5.689 5.376-11.238 6.155-15.377.404-2.144.44-3.92.104-5.183-.253-1.006-.744-1.712-1.422-2.111-.678-.398-1.524-.478-2.506-.199-1.242.336-2.734 1.256-4.356 2.685-3.131 2.756-6.775 7.426-10.001 13.115Zm1.098.645c2.595-4.576 5.461-8.47 8.098-11.203 1.811-1.882 3.499-3.21 4.919-3.796.835-.345 1.56-.441 2.109-.118.548.322.829 1.009.953 1.918.212 1.546-.074 3.697-.769 6.235-1.006 3.693-2.885 8.167-5.48 12.743-2.594 4.577-5.461 8.472-8.098 11.205-1.811 1.882-3.499 3.209-4.919 3.795-.835.345-1.56.441-2.108.119-.549-.323-.83-1.011-.954-1.919-.212-1.545.074-3.697.769-6.235 1.006-3.692 2.885-8.167 5.48-12.744Z" fill="#12151E"/><path fill-rule="evenodd" clip-rule="evenodd" d="m435.404 230.033-24.553-36.717c7.357.444 44.482 2.636 44.482 2.636a.619.619 0 0 0 .666-.583.616.616 0 0 0-.591-.657l-45.738-2.711a.627.627 0 0 0-.586.308.61.61 0 0 0 .023.654l25.247 37.755a.625.625 0 0 0 .872.176.61.61 0 0 0 .178-.861Z" fill="#12151E"/><path fill-rule="evenodd" clip-rule="evenodd" d="M544 227.702 579.452 186 592 239" fill="#6DDFDF"/><path fill-rule="evenodd" clip-rule="evenodd" d="m544.139 228.312 35.148-41.298 12.439 52.486c.093.348.439.561.767.485.353-.091.568-.433.492-.755l-12.735-53.732a.665.665 0 0 0-.479-.482.678.678 0 0 0-.649.217L543.14 227.51c-.216.255-.18.655.093.893.258.214.664.179.906-.091Z" fill="#12151E"/><path d="M566.218 243.822c13.771 3.441 25.733 2.728 26.717-1.592.985-4.32-9.382-10.611-23.153-14.052-13.771-3.44-25.733-2.728-26.717 1.592-.985 4.321 9.381 10.612 23.153 14.052Z" fill="#45B5DD"/><path fill-rule="evenodd" clip-rule="evenodd" d="M569.884 227.157c-7.425-1.872-14.328-2.501-19.215-1.983-2.508.26-4.482.84-5.775 1.674-.991.642-1.605 1.441-1.814 2.37-.21.928-.004 1.934.605 2.98.799 1.361 2.312 2.819 4.44 4.247 4.138 2.794 10.566 5.526 17.991 7.398 7.425 1.872 14.328 2.5 19.215 1.983 2.508-.26 4.482-.84 5.775-1.673.991-.643 1.605-1.442 1.814-2.37.21-.929.004-1.935-.606-2.98-.798-1.361-2.311-2.82-4.439-4.249-4.138-2.793-10.566-5.525-17.991-7.397Zm-.294 1.299c5.99 1.51 11.33 3.59 15.275 5.799 2.734 1.527 4.805 3.106 5.941 4.606.721.93 1.065 1.807.884 2.611-.182.806-.864 1.423-1.905 1.908-1.654.798-4.177 1.218-7.268 1.276-4.466.096-10.119-.602-16.107-2.111-5.99-1.51-11.331-3.585-15.275-5.8-2.734-1.527-4.805-3.105-5.941-4.606-.721-.93-1.065-1.806-.884-2.612.182-.804.864-1.422 1.905-1.907 1.654-.798 4.177-1.219 7.268-1.276 4.465-.089 10.119.602 16.107 2.112Z" fill="#12151E"/><path fill-rule="evenodd" clip-rule="evenodd" d="M659 192.846 622 195l20.423-30" fill="#6DDFDF"/><path d="M655.874 176.029c-4.655-7.89-10.388-13.179-12.805-11.815-2.416 1.365-.6 8.867 4.057 16.757 4.656 7.89 10.389 13.179 12.804 11.815 2.417-1.365.601-8.867-4.056-16.757Z" fill="#45B5DD"/><path fill-rule="evenodd" clip-rule="evenodd" d="M646.132 181.172c2.553 4.204 5.442 7.652 7.922 9.693 1.301 1.072 2.497 1.755 3.491 2.01.818.213 1.522.15 2.086-.16.564-.309.973-.857 1.188-1.638.265-.946.241-2.272-.085-3.879-.619-3.063-2.315-7.167-4.866-11.37-2.552-4.204-5.442-7.652-7.923-9.693-1.301-1.072-2.496-1.755-3.49-2.01-.818-.213-1.522-.15-2.086.16-.564.309-.973.857-1.188 1.638-.265.946-.241 2.272.085 3.879.618 3.063 2.314 7.167 4.866 11.37Zm1.114-.611c-2.041-3.36-3.52-6.644-4.31-9.351-.538-1.845-.764-3.415-.607-4.547.093-.622.285-1.096.685-1.316.4-.22.928-.14 1.541.093 1.11.438 2.427 1.409 3.838 2.774 2.07 2.004 4.321 4.864 6.361 8.225 2.041 3.36 3.52 6.644 4.31 9.351.538 1.845.763 3.415.607 4.548-.093.62-.285 1.095-.685 1.315-.401.22-.929.14-1.541-.093-1.11-.438-2.427-1.409-3.838-2.774-2.071-2.004-4.321-4.864-6.361-8.225Z" fill="#12151E"/><path fill-rule="evenodd" clip-rule="evenodd" d="m658.329 192.508-34.486 2.127 19.036-29.63a.654.654 0 0 0-.17-.894.615.615 0 0 0-.87.174l-19.73 30.711a.67.67 0 0 0-.028.685.632.632 0 0 0 .591.318l35.745-2.205a.637.637 0 0 0 .581-.688.631.631 0 0 0-.669-.598Z" fill="#12151E"/></svg>